<?xml version="1.0" standalone="no"?><svg xmlns="http://www.w3.org/2000/svg" viewBox="0 0 1440 320"><path fill="#ffffff" fill-opacity="1" d="M0,128L40,138.7C80,149,160,171,240,186.7C320,203,400,213,480,186.7C560,160,640,96,720,106.7C800,117,880,203,960,218.7C1040,235,1120,181,1200,176C1280,171,1360,213,1400,234.7L1440,256L1440,320L1400,320C1360,320,1280,320,1200,320C1120,320,1040,320,960,320C880,320,800,320,720,320C640,320,560,320,480,320C400,320,320,320,240,320C160,320,80,320,40,320L0,320Z"></path></svg>